<svg width="1920" height="930" viewBox="0 0 1920 930" fill="none" xmlns="http://www.w3.org/2000/svg">
<mask id="mask0_50_1319" style="mask-type:alpha" maskUnits="userSpaceOnUse" x="0" y="0" width="1920" height="930">
<path d="M0 0H1920V772.183C1920 772.183 1902.5 734.175 1744.5 707.67C1586.5 681.164 1453 919.212 1235.5 928.714C1018 938.216 778.5 806.69 639.5 806.69C500.5 806.69 360.5 914.211 232.5 914.211C104.5 914.211 0 806.69 0 806.69V0Z" fill="white"/>
</mask>
<g mask="url(#mask0_50_1319)">
<path d="M0 0H1920V772.183C1920 772.183 1902.5 734.175 1744.5 707.67C1586.5 681.164 1453 919.212 1235.5 928.714C1018 938.216 778.5 806.69 639.5 806.69C500.5 806.69 360.5 914.211 232.5 914.211C104.5 914.211 0 806.69 0 806.69V0Z" fill="#EBF5EB"/>
<path fill-rule="evenodd" clip-rule="evenodd" d="M509.272 53.6204C542.444 41.1665 578.566 43.7737 611.538 57.058C650.938 72.9318 707.011 90.873 707.721 133.574C708.458 177.901 640.487 184.215 614.242 219.663C594.362 246.512 609.465 299.059 577.736 309.131C546.241 319.128 521.935 279.279 497.49 256.723C480.154 240.728 468.217 222.072 459.543 200.073C449.179 173.788 434.561 146.779 443.621 120.099C454.072 89.318 479.03 64.974 509.272 53.6204Z" fill="#E0F3E0"/>
</g>
</svg>
