<svg xmlns="http://www.w3.org/2000/svg" viewBox="0 0 917.55 102.41"><defs><style>.cls-1{fill:#111827;}</style></defs><g id="katman_2" data-name="katman 2"><g id="katman_1-2" data-name="katman 1"><path class="cls-1" d="M34.22,101.93C10.11,101.93,0,90,0,66.85V35.23C0,12,10.11,0,34.22,0H66.41c24.12,0,34.22,12,34.22,35.23v1.15a2.59,2.59,0,0,1-2.89,2.89H89.37c-1.88,0-2.89-.72-2.89-2.31V34.79c0-16.17-5.19-21.07-20.07-21.07H34.22c-14.87,0-20.07,4.9-20.07,21.07V67.28c0,16,5.2,20.94,20.07,20.94H66.41c14.88,0,20.07-4.91,20.07-20.94V64.1a2.59,2.59,0,0,1,2.89-2.88h8.37c1.88,0,2.89.86,2.89,2.74v2.89c0,23.1-10.1,35.08-34.22,35.08Z"/><path class="cls-1" d="M147.84,101.93c-24.11,0-34.22-12-34.22-35.08V35.23C113.62,12,123.73,0,147.84,0h36.24c24.11,0,34.22,12,34.22,35.23V66.85c0,23.1-10.11,35.08-34.22,35.08Zm36.24-13.71c14.87,0,20.07-4.91,20.07-20.94V34.79c0-8.08-1.45-13.57-4.48-16.6s-8.08-4.47-15.59-4.47H147.84c-14.87,0-20.07,4.9-20.07,21.07V67.28c0,16,5.2,20.94,20.07,20.94Z"/><path class="cls-1" d="M330.19,37c0,19.2-6.36,29.74-23.1,33.21l19.78,28.3c1.3,1.87.43,3.46-1.88,3.46H315a3.92,3.92,0,0,1-3.47-1.88L292.21,71.61H248.76V99a2.59,2.59,0,0,1-2.89,2.89H237.5A2.59,2.59,0,0,1,234.61,99V2.89A2.59,2.59,0,0,1,237.5,0h52.26C304.63,0,315,2.74,321.09,8.37s9.1,14.59,9.1,26.86Zm-14.3-1.59c0-8.66-1.87-14.44-5.77-17.32s-10.83-4.33-21.23-4.33H248.76V58h40.13c10.4,0,17.47-1.44,21.23-4.19s5.77-8.52,5.77-17Z"/><path class="cls-1" d="M373.21,101.93a3.25,3.25,0,0,1-3.32-2.31L337.11,3.32c-.72-2.17,0-3.32,2.31-3.32h9.1a3,3,0,0,1,3.18,2.31L378,82.87,404.39,2.31A3,3,0,0,1,407.57,0h9.82a3,3,0,0,1,3.17,2.31l26.28,80.56L473.26,2.31A3,3,0,0,1,476.44,0h8.95c2.31,0,3,1.15,2.31,3.32l-32.77,96.3a3.26,3.26,0,0,1-3.32,2.31h-9.68a3,3,0,0,1-3.17-2.31L412.48,19.78,386.06,99.62a3,3,0,0,1-3.18,2.31Z"/><path class="cls-1" d="M530.14,101.93c-24.11,0-34.22-12-34.22-35.08v-64A2.6,2.6,0,0,1,498.81,0h8.38a2.59,2.59,0,0,1,2.88,2.89V67.28c0,16,5.2,20.94,20.07,20.94h31.19c14.87,0,19.92-4.91,19.92-20.94V2.89A2.59,2.59,0,0,1,584.14,0h8.52a2.59,2.59,0,0,1,2.89,2.89v64c0,23.1-10.11,35.08-34.22,35.08Z"/><path class="cls-1" d="M645.5,101.93c-23.68,0-33.21-9.53-34.22-31.47a2.59,2.59,0,0,1,2.89-2.89h8.37a2.59,2.59,0,0,1,2.89,2.89c.43,6.78,2,11.4,4.91,14s8.08,3.76,15.16,3.76h27.57c15.74,0,21.08-3.76,21.08-15.31,0-5.34-1.44-8.95-4.18-10.83s-7.66-3.17-14.88-3.75l-31.61-2.6c-11.41-.87-19.64-3.18-24.4-7.07S612,38.12,612,28.88C612,9.1,621.67,0,647.09,0H672.5c23.67,0,33.2,9.53,34.21,31.47a2.59,2.59,0,0,1-2.88,2.89h-8.38a2.59,2.59,0,0,1-2.89-2.89c-.43-6.78-2-11.4-5-13.86s-7.94-3.89-15-3.89H647.23c-8.09,0-13.72,1.15-16.75,3.32S626,23.1,626,29c0,5.34,1.3,8.81,4,10.68s7.65,3,14.87,3.61l31.62,2.46q17.1,1.29,24.25,7.36c4.91,4,7.37,10.69,7.37,19.78,0,20.07-9.68,29-35.09,29Z"/><path class="cls-1" d="M752.41,70.3c4.57,0,7.65,1,9.31,3s2.51,5.2,2.51,9.71V89.9c0,4.4-.85,7.54-2.51,9.54s-4.74,3-9.31,3h-6.8c-4.8,0-7.83-1.37-9.09-4.17v3a1,1,0,0,1-1.14,1.14h-3.09a1,1,0,0,1-1.14-1.14V60.18A1,1,0,0,1,732.29,59h3.09a1,1,0,0,1,1.14,1.14V74.47c1.26-2.8,4.29-4.17,9.09-4.17Zm6.45,12.23c0-2.92-.45-4.86-1.31-5.77s-2.57-1.38-5.2-1.38h-9.26c-2.4,0-4.11.46-5.08,1.43s-1.49,2.8-1.49,5.72V90.3c0,2.86.51,4.74,1.49,5.66s2.68,1.37,5.08,1.37h9.26c2.63,0,4.34-.46,5.2-1.37s1.31-2.8,1.31-5.66Z"/><path class="cls-1" d="M781.21,102.41c-4.57,0-7.71-1-9.37-3s-2.46-5.2-2.46-9.71V82.81c0-4.4.8-7.54,2.46-9.54s4.8-3,9.37-3h9.49c4.57,0,7.65,1,9.31,3s2.51,5.14,2.51,9.54v6.92c0,4.51-.85,7.71-2.51,9.71s-4.74,3-9.31,3Zm9.37-5.08c2.69,0,4.4-.46,5.26-1.37s1.31-2.86,1.31-5.78V82.41c0-2.85-.45-4.74-1.31-5.65s-2.57-1.38-5.26-1.38h-9.26q-4,0-5.31,1.38c-.86.91-1.26,2.8-1.26,5.65v7.77c0,2.92.4,4.86,1.26,5.78s2.63,1.37,5.31,1.37Z"/><path class="cls-1" d="M818.64,102.41c-8,0-12-3-12-8.85,0-3.15.75-5.49,2.23-6.92s4.17-2.4,8-2.8L831,82.3A2,2,0,0,0,832.87,80c0-3.65-1.14-4.63-5.88-4.63H810.36a1,1,0,0,1-1.14-1.14v-2.8a1,1,0,0,1,1.14-1.14H827.1c8.06,0,11.14,2.8,11.14,9.43v21.54a1,1,0,0,1-1.14,1.14H834a1,1,0,0,1-1.15-1.14V97.5a7.21,7.21,0,0,1-3.31,3.77,14.88,14.88,0,0,1-6.63,1.14Zm6.46-5c5.89,0,7.77-1.94,7.77-7.43V86.87l-15.14,1.6c-4.51.46-5.66,1.49-5.66,4.63,0,2.91,2.17,4.34,6.57,4.34Z"/><path class="cls-1" d="M864.08,70.3a1,1,0,0,1,1.14,1.14v2.8a1,1,0,0,1-1.14,1.14h-7.77c-2.41,0-4.12.46-5.09,1.43s-1.49,2.8-1.49,5.72v18.74a1,1,0,0,1-1.14,1.14h-3.08a1,1,0,0,1-1.15-1.14V71.44a1,1,0,0,1,1.15-1.14h3.08a1,1,0,0,1,1.14,1.14v3c1.26-2.8,4.29-4.17,9.09-4.17Z"/><path class="cls-1" d="M894.82,60.18A1,1,0,0,1,896,59h3.08a1,1,0,0,1,1.14,1.14v41.09a1,1,0,0,1-1.14,1.14H896a1,1,0,0,1-1.15-1.14v-3c-1.31,2.92-3.94,4.17-9,4.17h-6.85c-4.57,0-7.72-1-9.38-3s-2.45-5.14-2.45-9.54V83c0-4.51.8-7.71,2.45-9.71s4.81-3,9.38-3h6.85c5.09,0,7.72,1.26,9,4.17Zm-6.51,37.15c2.4,0,4.06-.46,5-1.37s1.48-2.8,1.48-5.66V82.53c0-2.92-.51-4.8-1.48-5.72s-2.63-1.43-5-1.43h-9.26c-2.68,0-4.46.46-5.31,1.38s-1.26,2.85-1.26,5.77V90.3c0,2.86.4,4.74,1.26,5.66s2.63,1.37,5.31,1.37Z"/><path class="cls-1" d="M907.34,60.44a.36.36,0,0,1-.35-.22l-4.8-10a.23.23,0,0,1,.22-.36h1a.35.35,0,0,1,.34.22L908,58.84l4.18-8.74a.35.35,0,0,1,.34-.22h1c.22,0,.33.16.22.36l-4.79,10a.35.35,0,0,1-.34.22Z"/><path class="cls-1" d="M916.37,60.44a.26.26,0,0,1-.3-.29V52.77h-1.84a.27.27,0,0,1-.3-.3v-.69a.27.27,0,0,1,.3-.3h1q.64,0,.78-.15a1.43,1.43,0,0,0,.13-.79v-.36a.27.27,0,0,1,.3-.3h.82a.27.27,0,0,1,.3.3v10a.26.26,0,0,1-.3.29Z"/></g></g></svg>