<?xml version="1.0" encoding="utf-8"?>
<!-- Generator: Adobe Illustrator 24.3.0, SVG Export Plug-In . SVG Version: 6.00 Build 0)  -->
<svg version="1.1" id="katman_1" xmlns="http://www.w3.org/2000/svg" xmlns:xlink="http://www.w3.org/1999/xlink" x="0px" y="0px"
	 viewBox="0 0 179 55" style="enable-background:new 0 0 179 55;" xml:space="preserve">
<style type="text/css">
	.st0{fill:#028835;}
	.st1{fill:#333F4D;}
	.st2{font-family:'Helvetica-Bold';}
	.st3{font-size:22.8453px;}
</style>
<path class="st0" d="M11.3,40.2L11.3,40.2l0.6,2.6l6.5,1.1l-0.4-4.5C15.7,39.7,13.5,40,11.3,40.2z"/>
<path class="st0" d="M31,36.1c-0.7,0.2-1.3,0.4-2,0.6l-0.4,5.5l4.9,1.6l2.2-9.3C34.1,35,32.5,35.6,31,36.1z"/>
<path class="st0" d="M20.3,38.9l0.4,3.9l6-0.6l0.1-4.9C24.7,37.9,22.5,38.4,20.3,38.9z"/>
<path class="st0" d="M39.4,25.1l4.6,9.8l4-8.1L39.4,25.1z"/>
<path class="st0" d="M42.3,26.1c-3.1,1.7-6.4,3.4-9.7,4.9c-3.9,1.8-7.9,3.3-12,4.6c-2,0.6-4.1,1.2-6.2,1.6c-2,0.5-4.1,0.7-6.2,0.7
	c-0.5,0-1-0.1-1.4-0.2c-0.4-0.1-0.7-0.2-1-0.4c-0.1-0.1-0.1-0.2-0.2-0.3c0-0.2,0-0.3,0-0.5c0.2-0.4,0.4-0.8,0.7-1.2
	c0.7-0.8,1.4-1.6,2.3-2.2c0.2-0.2,0.5-0.4,0.7-0.6l-0.2-0.8c-0.4,0.2-0.7,0.4-1.1,0.6c-1,0.6-1.9,1.3-2.7,2.1
	c-0.5,0.4-0.8,1-1.1,1.5C4.1,36.3,4,36.7,4,37.1c0,0.4,0.2,0.9,0.4,1.2c0.5,0.6,1.1,1,1.8,1.2C6.8,39.8,7.4,39.9,8,40
	c2.3,0.3,4.6,0.4,6.9,0.1c2.3-0.2,4.5-0.5,6.7-0.9c4.4-0.8,8.8-1.9,13-3.3c2.1-0.7,4.2-1.4,6.3-2.2c1.4-0.5,2.8-1.1,4.3-1.7
	C44.2,30.2,43.1,27.8,42.3,26.1z"/>
<path class="st1" d="M27,31.9L27.5,10l-9.1,0.6l1.5,24.1C22.2,33.8,24.6,32.9,27,31.9z"/>
<path class="st1" d="M37.5,26.8l1.9-8.3l-9-1.7l-1,14C32.1,29.5,34.8,28.2,37.5,26.8z"/>
<path class="st1" d="M15.5,13.9L9,15.7l-0.2-2.4l-4.7,0.7l1.6,6.1l3-0.8l0.2,1.8l-2.2,0.6l3.8,15.5l0.3-0.1c2.1-0.4,4.2-1,6.2-1.6
	l0.5-0.2L15.5,13.9z"/>
<path class="st1" d="M4.4,24.4L5,26.7l1.4-0.4l-0.2-2.2L4.4,24.4z"/>
<path class="st1" d="M3.6,18.3L0,19.2l1.7,4.6l2.7-1L3.6,18.3z"/>
<text transform="matrix(1 0 0 1 49.9486 35.2894)" class="st2 st3">T. SİGORTA</text>
</svg>
