<svg width="148" height="38" viewBox="0 0 148 38" fill="none" xmlns="http://www.w3.org/2000/svg">
<g clip-path="url(#clip0_669_1870)">
<path fill-rule="evenodd" clip-rule="evenodd" d="M91.4209 16.0793C91.4112 14.8867 91.2757 13.6985 91.0168 12.534C90.7107 11.3837 90.8086 12.038 91.2066 11.1646C91.7423 9.9747 91.0474 9.16522 90.2454 8.54137C89.376 7.86579 88.7148 7.13239 87.6006 7.36671C86.9088 7.51278 86.7343 7.78667 86.3914 8.11838C85.9445 8.09099 85.3843 7.9723 84.9068 7.92057C81.8456 7.59495 83.0976 8.30096 82.4058 7.09587C82.2126 6.76397 81.9191 6.50098 81.5671 6.34421C81.0314 6.09467 79.161 6.07032 78.5059 6.20118C77.26 6.45681 77.1162 7.56148 76.9141 7.84753C76.3019 7.84753 75.6223 7.84753 75.004 7.89927C72.2704 8.14576 73.8652 8.34053 72.7051 7.62538C71.2724 6.74286 70.2561 7.9297 69.3715 8.56572C68.4868 9.20174 67.9174 10.0873 68.4715 11.2194C68.9062 12.0958 68.9246 11.4659 68.646 12.601C68.4023 13.7428 68.2742 14.906 68.2633 16.0732C66.7113 16.5297 66.5369 17.1687 66.5369 18.9277C66.5369 20.5862 66.6777 21.3896 68.2756 21.7731C68.3644 23.0573 68.3582 24.1041 68.6582 25.3244C68.7593 25.7322 69.1235 26.4382 69.0041 26.8034C68.5664 28.1667 68.9001 28.6293 69.9653 29.4753C70.7092 30.0626 71.5143 30.8873 72.5367 30.653C73.3724 30.4613 73.6326 29.9774 73.7612 29.944C74.827 30.0801 75.9007 30.1472 76.9754 30.1448C77.1498 31.9707 78.7355 31.9707 79.8651 31.9707C80.8722 31.9707 81.815 32.0437 82.4181 30.9999C83.0915 29.8435 81.7875 30.3213 84.4415 30.1174C84.9466 30.0779 85.5067 29.9744 85.9873 29.9683C86.5996 30.7991 87.7597 30.9543 88.7424 30.2452C89.125 29.9653 89.4526 29.6822 89.826 29.3931C91.4454 28.1424 90.7015 27.3512 90.6433 26.7212C90.628 26.5721 91.0015 25.5405 91.0658 25.2605C91.3027 24.1221 91.4237 22.9629 91.427 21.8004C91.6321 21.6544 91.8709 21.6361 92.1586 21.4353C92.3828 21.2942 92.5681 21.0996 92.6974 20.8692C93.0739 20.2606 93.0035 19.7402 93.0035 18.9429C93.0035 18.1456 93.077 17.6374 92.6974 17.0196C92.2719 16.3258 92.1341 16.5053 91.4209 16.1067M87.6618 22.5186C87.521 25.4401 86.9057 26.3865 83.9884 26.5995C82.8925 26.6786 77.6335 26.6452 76.2682 26.6208C73.3785 26.5752 72.3071 25.9361 72.0836 23.0938C72.0071 22.1413 71.9949 16.4627 72.0377 15.4128C72.1632 12.4701 72.8857 11.6089 75.7754 11.408C76.8988 11.3289 82.1364 11.3533 83.4864 11.3806C86.321 11.4385 87.4291 12.0897 87.6281 14.929C87.7077 16.1523 87.7261 21.2557 87.6618 22.5186Z" fill="#3B3A39"/>
<path fill-rule="evenodd" clip-rule="evenodd" d="M3.80192 27.3639C4.04681 27.6499 4.16007 28.0516 4.68659 28.5811C5.81615 29.701 7.69262 30.0723 9.32421 30.127C10.9558 30.1818 15.9975 30.191 17.4362 29.9597C23.2187 29.0254 23.1575 24.7863 23.1575 18.9891C23.1575 14.1626 23.531 8.89793 17.473 8.01237C16.1282 7.85365 14.7737 7.79263 13.42 7.82978C10.7293 7.82978 6.51715 7.46155 4.65291 9.44265C4.4806 9.61886 4.32486 9.81037 4.18762 10.0148C4.03456 10.24 3.94273 10.4347 3.80804 10.6234C3.72233 9.77132 4.11415 8.12496 3.29989 7.88455C2.89888 7.76587 0.609147 7.775 0.327522 7.97281C-0.153077 8.31364 0.0367136 10.1274 0.0367136 10.8577V36.3808C0.0367136 37.9419 0.0520193 37.9693 1.62851 37.9662C2.92643 37.9662 3.79273 38.301 3.79273 36.8646C3.79273 35.0904 3.71008 28.6176 3.79273 27.3639M7.08346 11.439C8.06914 11.3112 13.3894 11.3781 14.8067 11.3812C17.6597 11.3812 19.0219 11.792 19.3158 14.5886C19.4321 15.6903 19.4474 20.9428 19.3954 22.1753C19.2852 24.9537 18.9515 26.314 16.1016 26.5665C14.8067 26.6852 9.9793 26.6274 8.35689 26.6213C5.57432 26.6213 4.25496 26.0127 3.89069 23.3743C3.73457 22.2452 3.76518 17.2423 3.78661 15.8242C3.82334 13.1736 4.46618 11.7828 7.08346 11.439Z" fill="#3B3A39"/>
<path fill-rule="evenodd" clip-rule="evenodd" d="M44.3436 26.8674C44.5763 30.3397 43.4835 30.1662 47.065 30.1449C47.8548 30.1449 48.0966 30.0171 48.1119 29.2076C48.1425 27.75 48.1823 14.8135 48.0476 13.2675C47.5272 7.28771 42.0539 7.83853 37.4193 7.83853H29.3869C27.6145 7.83853 27.8349 7.86287 27.838 10.3065C27.838 11.1404 27.9727 11.3716 28.8298 11.3777H38.8764C41.5825 11.3777 44.1324 11.0369 44.3253 13.9005C44.4355 15.5316 44.2794 16.0581 42.6814 16.2255C39.6203 16.5481 34.4409 16.9832 31.8175 17.4428C29.3685 17.8658 27.6268 18.66 26.7115 20.3672C25.7962 22.0745 25.7686 25.3185 26.7115 27.0287C27.6298 28.6933 29.3502 29.6063 31.796 29.9867C33.3786 30.2301 37.854 30.2119 39.4948 30.0506C43.4559 29.6611 43.7406 27.5156 44.3375 26.8796M44.3375 19.3782C44.5028 20.635 44.359 23.3343 43.9335 24.3812C42.7672 27.3117 38.4846 26.7122 35.3408 26.7122C33.5378 26.7122 32.0501 26.7274 30.7828 25.8206C29.7696 25.0963 29.4267 23.0117 30.3022 21.7214C30.9756 20.7324 32.9287 20.5529 34.4378 20.4038L41.8519 19.6247C42.6141 19.5304 43.56 19.3752 44.3345 19.366L44.3375 19.3782Z" fill="#3B3A39"/>
<path fill-rule="evenodd" clip-rule="evenodd" d="M101.725 7.87219C99.2544 8.13086 96.5667 8.43518 95.3667 11.0188C94.8004 12.2361 94.7361 13.709 94.8922 15.2306C95.382 19.9505 99.4442 20.2305 103.803 20.5835C105.26 20.7022 106.711 20.8878 108.165 21.0126C110.92 21.2743 112.255 21.5999 112.065 24.2414C112.066 24.5489 112 24.8529 111.873 25.1332C111.746 25.4135 111.56 25.6635 111.328 25.8664C110.483 26.5816 108.646 26.6303 107.348 26.6333C104.158 26.6333 100.966 26.6333 97.7758 26.6333C95.0729 26.6333 95.3269 26.329 95.3269 29.0039C95.3269 30.5042 95.9912 30.1573 98.9666 30.1573C102.132 30.1573 105.395 30.2303 108.542 30.1573C113.954 30.0112 116.167 28.1184 115.855 23.295C115.76 21.816 115.335 20.7235 114.572 19.841C113.238 18.2981 110.097 17.7107 107.428 17.519C106.016 17.4125 104.516 17.236 103.075 17.0595C101.85 16.9074 100.087 16.8404 99.2268 16.1466C98.4187 15.4771 98.385 13.3712 99.0676 12.4948C99.7962 11.5818 101.275 11.4388 102.781 11.4114C105.949 11.3505 109.179 11.4114 112.353 11.4114C114.964 11.4114 114.765 11.6883 114.774 9.08946C114.774 7.52832 114.275 7.85698 111.242 7.85698C109.552 7.85698 102.854 7.77786 101.752 7.89654" fill="#BA00DB"/>
<path fill-rule="evenodd" clip-rule="evenodd" d="M133.842 7.87223C131.36 8.14916 128.727 8.41087 127.499 11.0432C126.615 12.9361 126.701 16.88 128.473 18.5385C130.245 20.197 132.991 20.2305 135.939 20.5774C137.366 20.7448 138.847 20.8818 140.289 21.0096C143.136 21.253 144.376 21.6182 144.201 24.2445C144.202 24.5522 144.136 24.8565 144.008 25.1365C143.88 25.4165 143.692 25.6656 143.457 25.8665C142.582 26.5633 140.812 26.6212 139.456 26.6212C136.267 26.6212 133.074 26.6212 129.884 26.6212C127.252 26.6212 127.457 26.3168 127.435 28.9248C127.435 30.4616 127.824 30.1421 131.05 30.1421C134.216 30.1421 137.479 30.2151 140.623 30.1421C146.068 29.993 148.306 28.164 147.951 23.2433C147.62 18.4472 143.874 17.9877 139.438 17.4978C138.024 17.3426 136.567 17.1934 135.125 17.0322C133.867 16.88 132.106 16.7917 131.304 16.0675C130.502 15.3432 130.579 13.3286 131.213 12.4552C131.846 11.5818 133.505 11.4145 134.947 11.3901C138.122 11.3384 141.339 11.3901 144.519 11.3901C147.115 11.3901 146.889 11.6549 146.895 9.06819C146.895 8.06395 146.779 7.83571 145.768 7.83571C143.626 7.83571 134.944 7.75354 133.83 7.87527" fill="#BA00DB"/>
<path fill-rule="evenodd" clip-rule="evenodd" d="M56.1413 10.6084C56.0985 7.63222 56.5056 7.84219 53.9281 7.83915C52.0914 7.83915 52.3976 7.76611 52.3976 11.2718V28.5844C52.3976 29.5247 52.2445 30.106 53.3159 30.1455C56.4934 30.2125 56.1536 30.2521 56.1536 28.0336V18.1707C56.1536 14.8232 55.7495 11.9079 59.3953 11.4423C60.7698 11.2658 62.8269 11.3814 64.2931 11.3814C67.2869 11.3814 66.9808 11.6431 66.9869 9.1325C66.9869 8.0826 66.9104 7.83915 65.8207 7.83915H63.3197C61.7646 7.83915 60.2096 7.85741 58.8443 8.33823C58.2611 8.5373 57.7226 8.84739 57.2586 9.25118C56.3158 10.1641 56.4689 10.3011 56.1689 10.6145" fill="#3B3A39"/>
<path fill-rule="evenodd" clip-rule="evenodd" d="M119.384 29.619C119.482 30.0816 119.914 30.1546 120.459 30.1546C121.895 30.1546 122.978 30.4011 123.098 29.4821V11.6187C123.098 8.60902 123.517 7.82997 121.977 7.83302C121.423 7.83302 120.863 7.83302 120.309 7.83302C119.023 7.84823 119.348 8.88595 119.348 10.1002C119.348 11.4757 119.274 29.1656 119.372 29.619" fill="#BA00DB"/>
<path fill-rule="evenodd" clip-rule="evenodd" d="M119.348 0.994663V4.44257C119.348 5.65983 120.137 5.38595 122.103 5.38595C123.021 5.38595 123.085 5.02077 123.085 4.23563V0.994663C123.085 -0.222603 122.262 0.0208503 120.437 0.0208503C119.632 0.0208503 119.335 0.136491 119.335 0.994663" fill="#BA00DB"/>
</g>
<defs>
<clipPath id="clip0_669_1870">
<rect width="148" height="38" fill="white"/>
</clipPath>
</defs>
</svg>
